<?xml version="1.0" encoding="UTF-8"?>
<svg width="752pt" height="752pt" version="1.1" viewBox="0 0 752 752" xmlns="http://www.w3.org/2000/svg">
 <g>
  <path d="m566.33 334.59h-31.863c-3.7734-14.621-9.5078-28.484-17.113-41.359l22.562-22.562c4.2852-4.2852 6.6484-9.9961 6.6484-16.082 0-6.0859-2.3633-11.797-6.6484-16.082l-26.422-26.426c-8.8672-8.8672-23.297-8.875-32.172 0l-22.562 22.562c-12.871-7.6055-26.738-13.34-41.352-17.113v-31.859c0-12.559-10.219-22.777-22.785-22.777h-37.258c-12.559 0-22.785 10.219-22.785 22.777v31.863c-14.613 3.7734-28.48 9.5078-41.352 17.113l-22.562-22.562c-8.8711-8.8711-23.301-8.8711-32.172 0l-26.422 26.422c-4.2852 4.2852-6.6484 9.9961-6.6484 16.082 0 6.0859 2.3633 11.797 6.6484 16.082l22.562 22.562c-7.6055 12.871-13.344 26.734-17.113 41.359h-31.855c-12.559 0-22.777 10.219-22.777 22.777v37.262c0 12.559 10.215 22.777 22.777 22.777h31.863c3.7734 14.621 9.5078 28.484 17.113 41.359l-22.562 22.562c-4.2852 4.2852-6.6484 9.9961-6.6484 16.082 0 6.0859 2.3633 11.797 6.6484 16.082l26.422 26.426c4.4375 4.4375 10.258 6.6523 16.082 6.6523 5.8203 0 11.648-2.2148 16.082-6.6523l22.562-22.562c12.871 7.6055 26.738 13.34 41.352 17.113v31.863c0 12.559 10.219 22.777 22.785 22.777h37.258c12.559 0 22.785-10.219 22.785-22.777v-31.863c14.613-3.7734 28.48-9.5078 41.352-17.113l22.562 22.562c4.4375 4.4375 10.258 6.6523 16.082 6.6523s11.648-2.2148 16.082-6.6523l26.422-26.422c4.2852-4.2852 6.6484-9.9961 6.6484-16.082 0-6.0859-2.3633-11.797-6.6484-16.082l-22.562-22.562c7.6055-12.871 13.344-26.734 17.113-41.359h31.863c12.559 0 22.777-10.219 22.777-22.777v-37.262c0.011719-12.559-10.203-22.781-22.77-22.781zm8.5742 60.043c0 4.7266-3.8438 8.5703-8.5703 8.5703h-37.344-0.015626-0.089843c-0.15625 0-0.30469 0.039063-0.45312 0.046875-0.30859 0.019531-0.62109 0.03125-0.91797 0.09375-0.17969 0.03125-0.34766 0.097656-0.51953 0.15234-0.26953 0.074218-0.54297 0.14062-0.80469 0.25-0.17188 0.070312-0.32031 0.16406-0.48828 0.25-0.24609 0.125-0.49609 0.24219-0.72266 0.39453-0.14844 0.09375-0.26953 0.21484-0.41016 0.32031-0.22266 0.17187-0.44922 0.33594-0.64844 0.53516-0.12891 0.125-0.23047 0.26953-0.35156 0.40625-0.17969 0.20703-0.36328 0.40625-0.51953 0.63281-0.12891 0.18359-0.22266 0.38281-0.33203 0.57812-0.11328 0.20312-0.24219 0.39844-0.33594 0.61719-0.11328 0.25391-0.18359 0.53125-0.26562 0.80469-0.050782 0.16406-0.125 0.32031-0.16016 0.49219-3.7422 16.934-10.324 32.828-19.555 47.23-0.22266 0.34766-0.38672 0.70703-0.54297 1.0703-0.019531 0.046875-0.046875 0.089844-0.070313 0.13672-0.32812 0.81641-0.47656 1.668-0.48828 2.5195 0 0.058594-0.015625 0.10547-0.007812 0.16016 0.003906 0.85547 0.17969 1.7031 0.48828 2.5039 0.019531 0.050781 0.027344 0.10937 0.050781 0.16016 0.34766 0.83203 0.84766 1.6016 1.5 2.2578 0.015625 0.015625 0.019531 0.03125 0.027344 0.046875l0.050781 0.050781c0.003906 0.003907 0.015625 0.015626 0.019532 0.019532l26.441 26.441c1.6055 1.6055 2.4844 3.75 2.4844 6.0391 0 2.2891-0.88672 4.4336-2.4844 6.0391l-26.422 26.426c-3.3281 3.3281-8.75 3.3281-12.082 0l-26.512-26.512c-0.015625-0.015626-0.03125-0.019532-0.046875-0.03125-0.66406-0.65234-1.4297-1.1562-2.2578-1.5-0.050781-0.023438-0.10547-0.027344-0.15625-0.050782-0.80078-0.30859-1.6484-0.48438-2.5039-0.48828-0.058594 0-0.10938 0.007813-0.16406 0.015625-0.84766 0.015625-1.6992 0.16406-2.5156 0.48828-0.046876 0.019531-0.085938 0.046875-0.13281 0.066407-0.36328 0.15625-0.73047 0.32031-1.0742 0.54297-14.406 9.2344-30.297 15.812-47.23 19.559-0.14844 0.03125-0.27344 0.09375-0.41797 0.13672-0.29688 0.085937-0.60156 0.16406-0.88281 0.28906-0.19922 0.085938-0.37891 0.20312-0.56641 0.30859-0.21484 0.11719-0.42969 0.22266-0.62891 0.35938-0.19922 0.13672-0.37109 0.29688-0.55078 0.45312-0.16406 0.14062-0.33984 0.26953-0.49219 0.42578-0.16016 0.16406-0.29688 0.35547-0.44531 0.53516-0.14062 0.17578-0.28906 0.33984-0.41016 0.53125-0.125 0.1875-0.21875 0.39453-0.32031 0.59766-0.10938 0.20312-0.22656 0.39844-0.3125 0.61719-0.09375 0.23047-0.15234 0.47656-0.22266 0.71875-0.058594 0.19922-0.13281 0.38672-0.17188 0.59766-0.0625 0.30859-0.074218 0.625-0.09375 0.94141-0.007812 0.14062-0.042968 0.28125-0.042968 0.42578v0.085938 0.027343 37.324c0 4.7266-3.8516 8.5703-8.5781 8.5703h-37.258c-4.7266 0-8.5781-3.8438-8.5781-8.5703v-37.324-0.027343-0.085938c0-0.14844-0.03125-0.28516-0.042969-0.42969-0.019531-0.3125-0.03125-0.62891-0.09375-0.93359-0.042968-0.20703-0.11328-0.40234-0.17578-0.60547-0.070312-0.23828-0.12891-0.48438-0.22266-0.71094-0.089844-0.21875-0.20703-0.41016-0.31641-0.62109-0.10547-0.19922-0.19922-0.40234-0.32031-0.59375-0.125-0.1875-0.27344-0.35547-0.41797-0.53516-0.14844-0.17969-0.28125-0.37109-0.44141-0.53516-0.15234-0.15625-0.32812-0.28906-0.49609-0.42969-0.17969-0.15234-0.35156-0.31641-0.55078-0.44922-0.19922-0.13672-0.42188-0.24609-0.63281-0.36328-0.1875-0.10547-0.36328-0.21875-0.5625-0.30859-0.28516-0.125-0.58594-0.20312-0.88672-0.29297-0.14062-0.042968-0.26953-0.10547-0.41797-0.13672-16.93-3.7461-32.824-10.324-47.23-19.559-0.34766-0.22266-0.71094-0.38672-1.0742-0.54297-0.046875-0.019531-0.085938-0.046875-0.13281-0.066406-0.81641-0.32812-1.668-0.47656-2.5156-0.48828-0.058593 0-0.10938-0.015626-0.16406-0.015626-0.86328 0.003907-1.7031 0.17969-2.5039 0.48828-0.050781 0.019531-0.10547 0.027344-0.15625 0.050781-0.82812 0.33984-1.5977 0.84766-2.2578 1.5-0.015625 0.015625-0.03125 0.019531-0.046875 0.03125l-26.512 26.512c-3.3281 3.3281-8.75 3.3281-12.082 0l-26.422-26.426c-1.6055-1.6016-2.4844-3.7461-2.4844-6.0352 0-2.293 0.88672-4.4375 2.4844-6.0391l26.441-26.441c0.007813-0.007813 0.015625-0.015626 0.023438-0.023438l0.046875-0.046875c0.015625-0.015625 0.015625-0.027344 0.027343-0.042969 0.65234-0.66406 1.1602-1.4297 1.5-2.2656 0.023438-0.050781 0.027344-0.10938 0.050782-0.16016 0.30859-0.80078 0.48438-1.6484 0.48828-2.5039 0-0.050781-0.007813-0.10547-0.007813-0.15625-0.015624-0.85156-0.16406-1.7031-0.49219-2.5195-0.019531-0.046876-0.046875-0.085938-0.066406-0.13281-0.15625-0.36328-0.32031-0.73047-0.54297-1.0742-9.2305-14.406-15.812-30.297-19.555-47.23-0.039062-0.17188-0.11328-0.32813-0.16016-0.49219-0.082031-0.27344-0.15234-0.55078-0.26562-0.80469-0.09375-0.22266-0.22266-0.41797-0.33984-0.625-0.10938-0.1875-0.19922-0.38672-0.32031-0.56641-0.16016-0.23828-0.35547-0.44531-0.53906-0.65234-0.11328-0.12891-0.20703-0.26562-0.33203-0.38281-0.20703-0.20703-0.44531-0.38281-0.67578-0.55859-0.12891-0.097656-0.24609-0.20703-0.37891-0.29688-0.24219-0.16016-0.50391-0.28516-0.76172-0.41016-0.15234-0.074219-0.29297-0.16406-0.44922-0.23047-0.26953-0.10938-0.55078-0.17969-0.83203-0.26172-0.16406-0.046876-0.32812-0.10938-0.49609-0.14063-0.30469-0.0625-0.61719-0.074218-0.92969-0.09375-0.15234-0.007812-0.29297-0.046874-0.44922-0.046874h-0.089844-0.015625l-37.336-0.003907c-4.7266 0-8.5703-3.8438-8.5703-8.5703v-37.262c0-4.7266 3.8438-8.5703 8.5703-8.5703h37.426 0.019531c0.015625 0 0.023438-0.003907 0.039063-0.003907 0.73438-0.003906 1.4297-0.14844 2.0977-0.35938 0.11328-0.039062 0.22656-0.0625 0.33984-0.10547 0.64844-0.24219 1.2461-0.57813 1.7852-0.98828 0.097656-0.074218 0.1875-0.15625 0.28516-0.23828 0.53516-0.44922 1.0117-0.96094 1.3984-1.5469 0.042968-0.066406 0.070312-0.13672 0.11328-0.20703 0.375-0.62109 0.66406-1.2969 0.83203-2.0273 0.007813-0.03125 0.027344-0.058594 0.039063-0.089844 3.7422-16.934 10.324-32.828 19.555-47.23 0.22266-0.34766 0.38672-0.70703 0.54297-1.0742 0.019531-0.046875 0.046875-0.085938 0.066406-0.13281 0.32812-0.82031 0.47656-1.6719 0.49219-2.5195 0-0.050781 0.015625-0.10547 0.007812-0.15625-0.003906-0.86328-0.17969-1.7031-0.48828-2.5039-0.019531-0.050782-0.027344-0.10938-0.050781-0.16016-0.34766-0.83203-0.84766-1.6016-1.5-2.2656-0.015625-0.015624-0.015625-0.027343-0.027344-0.042968l-0.046875-0.046875c-0.007812-0.007813-0.015625-0.015625-0.023438-0.023438l-26.441-26.441c-1.6055-1.6055-2.4844-3.75-2.4844-6.0391 0-2.2891 0.88672-4.4336 2.4844-6.0391l26.422-26.426c3.3281-3.3281 8.75-3.3281 12.082 0l26.516 26.512c0.027343 0.027343 0.066406 0.03125 0.09375 0.0625 0.60547 0.58594 1.3008 1.0273 2.0508 1.3633 0.17188 0.074219 0.33203 0.13281 0.50781 0.19531 0.76172 0.26953 1.5547 0.46094 2.3633 0.46094h0.007813 0.003906c0.80078 0 1.5977-0.18359 2.3711-0.46484 0.22656-0.082031 0.42969-0.1875 0.65234-0.29297 0.26562-0.12891 0.55078-0.19922 0.80469-0.36328 14.406-9.2344 30.297-15.812 47.23-19.559 0.14844-0.03125 0.27344-0.09375 0.41797-0.13672 0.30469-0.085937 0.60156-0.16406 0.88672-0.29297 0.19922-0.085938 0.375-0.20312 0.5625-0.30859 0.21484-0.11719 0.4375-0.22266 0.63281-0.36328 0.19922-0.13672 0.37109-0.29688 0.55078-0.44922 0.16406-0.14062 0.33984-0.27344 0.49609-0.42969 0.16016-0.16406 0.29688-0.35547 0.44141-0.53516 0.14062-0.17578 0.29297-0.34766 0.41797-0.53516s0.21484-0.39453 0.32031-0.59375c0.10937-0.20312 0.22656-0.40234 0.31641-0.62109 0.09375-0.22656 0.15234-0.47266 0.22266-0.71094 0.058594-0.20312 0.13281-0.39844 0.17578-0.60547 0.0625-0.30469 0.074219-0.62109 0.09375-0.93359 0.007813-0.14844 0.042969-0.28516 0.042969-0.42969v-0.085938-0.027343l0.003906-37.324c0-4.7266 3.8516-8.5703 8.5781-8.5703h37.258c4.7266 0 8.5781 3.8438 8.5781 8.5703v37.324 0.027343 0.085938c0 0.14844 0.03125 0.28516 0.042969 0.42578 0.019531 0.31641 0.03125 0.63281 0.09375 0.94141 0.039062 0.20312 0.11328 0.39844 0.17187 0.59766 0.070313 0.24219 0.12891 0.48828 0.22266 0.71875 0.089843 0.21484 0.20703 0.41016 0.3125 0.61719 0.10547 0.19922 0.19922 0.40625 0.32031 0.59766 0.125 0.1875 0.27344 0.35547 0.41016 0.53125 0.14844 0.17969 0.28125 0.37109 0.44531 0.53516 0.15234 0.15625 0.32812 0.28516 0.49219 0.42578 0.17969 0.15625 0.35547 0.31641 0.55078 0.45312 0.19922 0.13672 0.41797 0.24219 0.62891 0.35938 0.1875 0.10547 0.36328 0.22266 0.56641 0.30859 0.28516 0.125 0.58203 0.20312 0.88281 0.28906 0.14062 0.042969 0.26953 0.10547 0.41797 0.13672 16.93 3.7461 32.824 10.324 47.23 19.559 0.25391 0.16016 0.53516 0.23828 0.80469 0.36328 0.21875 0.10547 0.42578 0.21484 0.65234 0.29297 0.77734 0.28125 1.5742 0.46484 2.3711 0.46484h0.003906 0.007813c0.80859 0 1.6016-0.1875 2.3633-0.46094 0.17578-0.0625 0.33594-0.11719 0.50781-0.19531 0.75-0.33203 1.4453-0.77344 2.0508-1.3633 0.027344-0.027344 0.066406-0.03125 0.09375-0.0625l26.516-26.512c3.3281-3.3281 8.75-3.3281 12.082 0l26.422 26.426c1.6055 1.6016 2.4844 3.7461 2.4844 6.0352 0 2.293-0.88672 4.4375-2.4844 6.0391l-26.441 26.441c-0.003906 0.003907-0.015625 0.015626-0.019531 0.019532l-0.050782 0.050781c-0.015624 0.015625-0.019531 0.03125-0.027343 0.042969-0.65234 0.66406-1.1602 1.4297-1.5 2.2578-0.023438 0.050782-0.03125 0.10938-0.050781 0.16016-0.30859 0.80078-0.47656 1.6445-0.48828 2.5039 0 0.058593 0.007813 0.10547 0.007813 0.16016 0.015625 0.84766 0.16406 1.6992 0.48828 2.5195 0.019531 0.046875 0.046875 0.089844 0.070312 0.13672 0.15625 0.36328 0.32031 0.72266 0.54297 1.0703 9.2305 14.406 15.812 30.297 19.555 47.23 0.007812 0.03125 0.027343 0.0625 0.039062 0.09375 0.17188 0.73047 0.46094 1.4023 0.83203 2.0273 0.042969 0.066406 0.070313 0.14062 0.11328 0.20312 0.38281 0.58594 0.86328 1.0977 1.3906 1.5469 0.09375 0.082031 0.1875 0.16016 0.28906 0.23828 0.54297 0.41016 1.1367 0.74219 1.7852 0.98828 0.11328 0.042969 0.22656 0.070313 0.33984 0.10547 0.66797 0.21484 1.3633 0.35547 2.0977 0.35938 0.015624 0 0.023437 0.003906 0.039062 0.003906h0.019531 37.426c4.7266 0 8.5703 3.8438 8.5703 8.5703l0.007813 37.273z"/>
  <path d="m376 278.92c-53.535 0-97.086 43.551-97.086 97.086 0.003907 53.531 43.555 97.082 97.086 97.082 53.535 0 97.086-43.551 97.086-97.086 0-53.531-43.551-97.082-97.086-97.082zm0 179.96c-45.695 0-82.875-37.18-82.875-82.875 0-45.699 37.18-82.879 82.875-82.879s82.879 37.18 82.879 82.875-37.184 82.879-82.879 82.879z"/>
 </g>
</svg>
