<?xml version="1.0" standalone="no"?><!DOCTYPE svg PUBLIC "-//W3C//DTD SVG 1.1//EN" "http://www.w3.org/Graphics/SVG/1.1/DTD/svg11.dtd"><svg t="1664688241583" class="icon" viewBox="0 0 1024 1024" version="1.1" xmlns="http://www.w3.org/2000/svg" p-id="3807" xmlns:xlink="http://www.w3.org/1999/xlink" width="200" height="200"><path d="M227 401.5c-8.8 0-16 7.2-16 16V459c0 8.8 7.2 16 16 16s16-7.2 16-16v-41.5c0-8.8-7.2-16-16-16zM227 505c-8.8 0-16 7.2-16 16v63c0 8.8 7.2 16 16 16s16-7.2 16-16v-63c0-8.9-7.2-16-16-16zM501.2 408.5c-6.3 6.2-6.3 16.3-0.1 22.6 3.1 3.2 7.3 4.7 11.4 4.7 4.1 0 8.1-1.5 11.3-4.6l136.5-135.1c6.3-6.2 6.3-16.3 0.1-22.6L525.2 137.1c-6.2-6.3-16.3-6.3-22.6-0.1-6.3 6.2-6.3 16.3-0.1 22.6L609.7 268H360.5c-54.1 0-104.1 29.3-130.5 76.6-4.3 7.7-1.6 17.5 6.1 21.8 2.5 1.4 5.2 2 7.8 2 5.6 0 11-2.9 14-8.2C278.7 323.1 318 300 360.5 300h250.4L501.2 408.5zM800 429c-8.8 0-16 7.2-16 16v166.5c0 64.8-52.7 117.5-117.5 117.5H416.1l109.7-108.5c6.3-6.2 6.3-16.3 0.1-22.6-6.2-6.3-16.3-6.3-22.6-0.1l-136.5 135c-4.3 4.3-5.7 10.4-4.1 15.8 0.7 2.5 2 4.8 4 6.8l135.1 136.5c3.1 3.2 7.3 4.7 11.4 4.7 4.1 0 8.1-1.5 11.3-4.6 6.3-6.2 6.3-16.3 0.1-22.6L417.3 761h249.2c82.4 0 149.5-67.1 149.5-149.5V445c0-8.8-7.2-16-16-16z" p-id="3808" fill="#8a8a8a"></path></svg>